<svg width="600" height="600" viewBox="0 0 600 600" fill="none" xmlns="http://www.w3.org/2000/svg">
<rect width="600" height="600" fill="#0CA7FF"/>
<path d="M223.164 142.676C240.307 136.432 261.168 131.912 280.337 130.287C288.506 129.595 309.19 129.561 317.653 130.225C363.044 133.79 406.034 150.792 436.14 177.087C444.695 184.558 558.836 293.073 560.374 295.197C565.544 302.335 567.985 308.942 568.376 316.864C568.891 327.278 566.428 333.963 556.477 349.165C547.129 363.445 537.776 374.776 524.493 387.915L299.163 332.065C299.163 332.065 74.2242 387.762 68.1598 381.187C54.3683 366.233 41.6721 348.865 35.3761 336.34C27.5606 320.79 30.6049 303.756 43.5739 290.47C51.5436 282.306 163.702 176.529 168.228 172.908C182.85 161.211 203.547 149.821 223.164 142.676Z" fill="white"/>
<path d="M223.164 145.872C240.307 139.627 261.168 135.107 280.337 133.483C288.506 132.791 309.19 132.756 317.653 133.421C363.044 136.985 406.034 153.988 436.14 180.282C444.695 187.754 558.836 296.269 560.374 298.392C565.544 305.531 567.985 312.137 568.376 320.059C568.891 330.473 566.428 337.159 556.477 352.36C547.129 366.641 537.776 377.972 524.493 391.111L515.482 398.984H300.017C300.017 398.984 84.3027 399 84.349 399.086C85.3058 400.875 74.2242 390.958 68.1598 384.382C54.3683 369.428 41.6721 352.06 35.3761 339.535C27.5606 323.986 30.6049 306.951 43.5739 293.666C51.5436 285.502 163.702 179.725 168.228 176.104C182.85 164.407 203.547 153.017 223.164 145.872Z" fill="white"/>
<path fill-rule="evenodd" clip-rule="evenodd" d="M216.974 254.83H218.508C257.429 255.441 289.064 281.395 289.256 312.846L289.262 409.749L135.583 434.956C116.487 424.801 99.074 412.753 83.7242 398.955C81.0592 385.031 82.2342 370.812 87.1676 357.287C92.1009 343.761 100.674 331.253 112.292 320.633L161.949 275.136C175.753 262.311 195.693 254.83 216.974 254.83ZM382.243 254.83H380.71C341.789 255.441 310.154 281.395 309.962 312.846V409.749L460.999 436.34C481.131 425.901 499.44 413.385 515.494 398.955C518.159 385.031 516.984 370.812 512.05 357.287C507.117 343.761 498.544 331.253 486.926 320.633L437.269 275.136C423.465 262.311 403.525 254.83 382.243 254.83Z" fill="white"/>
<path d="M216.48 279.573C210.291 279.479 204.155 280.494 198.523 282.544C192.89 284.593 187.905 287.625 183.933 291.417L133.861 337.405C95.9215 372.319 107.284 426.459 157.934 448.915C187.977 462.296 221.487 470.927 256.923 474.926V313.257C256.923 295.108 239.012 279.881 216.48 279.573Z" fill="#0CA7FF"/>
<path d="M381.833 279.573C394.929 279.42 406.677 284.034 414.38 291.417L464.452 337.405C502.392 372.319 491.029 426.459 440.379 448.915C410.336 462.296 376.826 470.927 341.39 474.926V313.257C341.39 295.108 359.301 279.881 381.833 279.573Z" fill="#0CA7FF"/>
<path d="M378.092 343.87C370.196 343.87 363.648 338.64 363.648 332.334V309.263C363.648 302.957 370.196 297.728 378.092 297.728C385.988 297.728 392.536 302.957 392.536 309.263V332.334C392.536 338.794 385.988 343.87 378.092 343.87Z" fill="white"/>
<path d="M223.119 343.87C215.223 343.87 208.675 338.64 208.675 332.334V309.263C208.675 302.957 215.223 297.728 223.119 297.728C231.015 297.728 237.563 302.957 237.563 309.263V332.334C237.563 338.794 231.015 343.87 223.119 343.87Z" fill="white"/>
<path d="M402.148 404.09C402.148 371.914 370.236 345.684 330.68 345.684H268.193C228.828 345.684 196.724 371.76 196.724 404.09C196.724 444.227 235.134 477.495 284.245 479.692C289.404 479.846 294.564 479.999 299.532 479.999C304.5 479.999 309.66 479.846 314.628 479.692C363.739 477.648 402.148 444.381 402.148 404.09Z" fill="white"/>
<path d="M241.65 411.515C241.65 410.424 240.766 409.54 239.675 409.54C238.584 409.54 237.7 410.424 237.7 411.515C237.7 416.052 239.438 422.347 244.254 427.526C249.122 432.76 256.974 436.685 268.871 436.685C280.753 436.685 288.652 432.967 293.718 428.081C296.365 425.528 298.195 422.698 299.415 420C300.634 422.698 302.464 425.528 305.112 428.081C310.178 432.967 318.077 436.685 329.959 436.685C341.856 436.685 349.708 432.76 354.576 427.526C359.392 422.347 361.13 416.052 361.13 411.515C361.13 410.424 360.246 409.54 359.155 409.54C358.064 409.54 357.18 410.424 357.18 411.515C357.18 415.161 355.75 420.463 351.683 424.836C347.668 429.153 340.922 432.734 329.959 432.734C318.962 432.734 312.09 429.323 307.854 425.238C303.588 421.123 301.834 416.168 301.376 412.846C301.363 412.74 301.342 412.635 301.312 412.534C301.206 412.166 300.999 411.848 300.725 411.606C300.552 411.452 300.35 411.327 300.126 411.241C299.904 411.155 299.663 411.108 299.415 411.109C299.166 411.108 298.926 411.155 298.704 411.241C298.48 411.327 298.278 411.452 298.105 411.606C297.831 411.848 297.624 412.166 297.518 412.534C297.488 412.635 297.467 412.739 297.454 412.846C296.996 416.168 295.242 421.123 290.976 425.238C286.74 429.323 279.868 432.734 268.871 432.734C257.908 432.734 251.162 429.153 247.147 424.836C243.08 420.463 241.65 415.161 241.65 411.515Z" fill="#0CA7FF" stroke="#0CA7FF" stroke-width="4.26832" stroke-linecap="round"/>
<path d="M262.091 370.237L286.601 388.874C294.052 394.494 306.013 394.494 313.269 388.874L337.779 370.237C349.74 361.214 341.309 345.684 324.445 345.684H275.424C258.561 345.684 250.129 361.214 262.091 370.237Z" fill="#0CA7FF"/>
<path d="M396.058 163.204C389.437 169.736 390.07 180.602 397.404 186.323L466.78 240.376C474.041 246.024 484.609 244.101 489.405 236.251C507.143 207.209 511.898 170.294 511.638 148.761C511.445 131.089 495.652 119.615 479.674 122.154C441.572 128.136 412.395 147.082 396.076 163.183L396.058 163.204Z" fill="#0CA7FF"/>
<path d="M482.164 137.383C458.767 141.056 439.12 150.153 424.415 160.055C414.534 166.709 415.308 180.67 424.706 187.99L458.906 214.628C468.2 221.867 481.774 219.349 485.918 208.322C493.955 186.927 496.516 163.983 496.34 148.94C496.261 141.408 489.618 136.189 482.164 137.383Z" fill="white"/>
<path d="M396.058 163.204V163.204C389.437 169.736 390.07 180.602 397.404 186.323V186.323L466.78 240.376V240.376C474.041 246.024 484.609 244.101 489.405 236.251V236.251C507.143 207.209 511.898 170.294 511.638 148.761C511.445 131.089 495.652 119.615 479.674 122.154C441.572 128.136 412.395 147.082 396.076 163.183L396.058 163.204Z" stroke="white" stroke-width="4.50904"/>
<path d="M203.222 163.204C209.843 169.736 209.21 180.602 201.876 186.323L132.5 240.376C125.239 246.024 114.671 244.101 109.875 236.251C92.1366 207.209 87.3821 170.294 87.6421 148.761C87.8349 131.089 103.628 119.615 119.606 122.154C157.708 128.136 186.885 147.082 203.204 163.183L203.222 163.204Z" fill="#0CA7FF"/>
<path d="M117.115 137.383C140.512 141.056 160.159 150.153 174.864 160.055C184.745 166.709 183.97 180.67 174.573 187.99L140.372 214.628C131.079 221.867 117.504 219.349 113.361 208.322C105.324 186.927 102.763 163.983 102.939 148.94C103.018 141.408 109.661 136.189 117.115 137.383Z" fill="white"/>
<path d="M203.222 163.204V163.204C209.843 169.736 209.21 180.602 201.876 186.323V186.323L132.5 240.376V240.376C125.239 246.024 114.671 244.101 109.875 236.251V236.251C92.1366 207.209 87.3821 170.294 87.6421 148.761C87.8349 131.089 103.628 119.615 119.606 122.154C157.708 128.136 186.885 147.082 203.204 163.183L203.222 163.204Z" stroke="white" stroke-width="4.50904"/>
</svg>
